Coordinates
version=1
nRows=6
nColumns=63
inDegrees=yes

Units are S.I. units (second, meters, Newtons, ...)
If the header above contains a line with 'inDegrees', this indicates whether rotational values are in degrees (yes) or radians (no).

endheader
time	pelvis_tilt	pelvis_list	pelvis_rotation	pelvis_tx	pelvis_ty	pelvis_tz	hip_flexion_r	hip_adduction_r	hip_rotation_r	knee_angle_r	knee_angle_r_beta	ankle_angle_r	subtalar_angle_r	mtp_angle_r	hip_flexion_l	hip_adduction_l	hip_rotation_l	knee_angle_l	knee_angle_l_beta	ankle_angle_l	subtalar_angle_l	mtp_angle_l	L5_S1_Flex_Ext	L5_S1_Lat_Bending	L5_S1_axial_rotation	L4_L5_Flex_Ext	L4_L5_Lat_Bending	L4_L5_axial_rotation	L3_L4_Flex_Ext	L3_L4_Lat_Bending	L3_L4_axial_rotation	L2_L3_Flex_Ext	L2_L3_Lat_Bending	L2_L3_axial_rotation	L1_L2_Flex_Ext	L1_L2_Lat_Bending	L1_L2_axial_rotation	L1_T12_Flex_Ext	L1_T12_Lat_Bending	L1_T12_axial_rotation	Abs_r3	Abs_r2	Abs_r1	Abs_t1	Abs_t2	neck_flexion	neck_bending	neck_rotation	arm_flex_r	arm_add_r	arm_rot_r	elbow_flex_r	pro_sup_r	wrist_flex_r	wrist_dev_r	arm_flex_l	arm_add_l	arm_rot_l	elbow_flex_l	pro_sup_l	wrist_flex_l	wrist_dev_l
      4.72222222	     -1.98627874	    -11.93425517	     69.61322916	      0.32153792	      0.87639735	      0.56245058	     19.58410839	      5.04059911	     14.65986767	     22.31626127	      0.38949224	     26.54902426	     -8.45202124	      0.00000000	     11.76209418	     -4.69256715	    -26.48969782	     16.60764767	      0.28985813	     32.71058783	     -3.80251605	      0.00000000	     -0.32937734	     -0.11800351	      2.37610203	     -0.61168666	     -0.15694466	      2.52460841	     -0.54113403	     -0.28691373	      2.52460841	     -0.37644536	     -0.28691373	      2.07908928	     -0.30585980	     -0.24063275	      1.93058290	     -0.18820621	     -0.18278743	      1.78207652	     -2.35270940	     -1.33487928	     13.21516667	      0.00000000	      0.00000000	      6.28958384	     -6.58292663	     18.15627630	     25.91179164	      8.09243919	     16.94449240	    127.28835469	     89.08579048	    -11.81381171	      0.08104173	      5.53452221	      0.28606020	     18.73155079	    148.42783241	     38.96733349	     -6.23374490	     -8.69486633
      4.74074074	     -1.91255975	    -12.02930438	     69.79101302	      0.32051842	      0.87635609	      0.56251561	     19.76183808	      5.07501612	     14.50247698	     22.45791952	      0.39196464	     26.50000671	     -8.64539331	      0.00000000	     11.76989528	     -4.66687718	    -26.36788063	     16.37095814	      0.28572712	     32.56123965	     -3.63249586	      0.00000000	     -0.29254189	     -0.06321057	      2.37139047	     -0.54327954	     -0.08407006	      2.51960238	     -0.48061706	     -0.15369019	      2.51960238	     -0.33434612	     -0.15369019	      2.07496666	     -0.27165440	     -0.12889900	      1.92675476	     -0.16715843	     -0.09791318	      1.77854285	     -2.08959744	     -0.71505064	     13.18896239	      0.00000000	      0.00000000	      7.92299994	     -6.53365286	     18.68636415	     25.64614677	      6.93697844	     16.64927752	    126.88553259	     89.02619437	    -11.50919645	     -0.84511669	      6.06374962	     -0.80265718	     18.18191336	    147.87975455	     38.87692031	     -6.55917697	     -8.22423660
      4.75925926	     -1.90852184	    -11.80544168	     70.26622351	      0.31969612	      0.87657020	      0.56259288	     19.64997410	      5.01258535	     14.86709394	     22.73165740	      0.39674227	     26.18587210	    -10.07078679	      0.00000000	     11.56363319	     -4.50251809	    -26.33512214	     16.26455168	      0.28386998	     32.57729739	     -2.97782680	      0.00000000	     -0.29245202	     -0.03327876	      2.20558810	     -0.54311264	     -0.04426076	      2.34343736	     -0.48046942	     -0.08091399	      2.34343736	     -0.33424341	     -0.08091399	      1.92988959	     -0.27157094	     -0.06786206	      1.79204033	     -0.16710708	     -0.05154881	      1.65419108	     -2.08895551	     -0.37645604	     12.26681934	      0.00000000	      0.00000000	      9.87149169	     -6.42362867	     19.68380086	     25.80487603	      5.96723290	     17.19403974	    125.10993454	     88.81518628	    -11.89851972	     -4.98746489	      6.51170972	     -2.08231220	     14.76431104	    147.54107491	     48.82299896	    -10.25983965	     -2.40877706
      4.77777778	     -1.86281612	    -11.71188342	     70.35856887	      0.31938356	      0.87658926	      0.56198626	     19.51182261	      4.99357241	     14.89416454	     22.74555058	      0.39698475	     26.30955307	    -10.14084446	      0.00000000	     11.31873593	     -4.40614861	    -26.15594398	     15.97515042	      0.27881897	     32.64174736	     -2.79547565	      0.00000000	     -0.24414349	      0.00152555	      2.18572124	     -0.45339887	      0.00202898	      2.32232882	     -0.40110333	      0.00370923	      2.32232882	     -0.27903159	      0.00370923	      1.91250609	     -0.22671164	      0.00311091	      1.77589851	     -0.13950359	      0.00236308	      1.63929093	     -1.74389250	      0.01725735	     12.15632583	      0.00000000	      0.00000000	     11.46837834	     -6.17000605	     19.88361003	     25.62031712	      4.25882574	     17.37702031	    124.40338244	     88.52342674	    -11.62663260	     -4.78918269	      7.17521045	     -4.54165599	     13.71280718	    146.28723160	     49.29314851	    -10.69288574	     -2.18128259
      4.79629630	     -1.86543999	    -11.30349233	     71.15574170	      0.31848211	      0.87688453	      0.56121984	     18.98415423	      4.69286945	     14.91463051	     22.63365802	      0.39503185	     26.14586818	    -11.24904406	      0.00000000	     10.87218157	     -4.18234598	    -26.38432161	     15.75360499	      0.27495228	     32.96404335	     -0.92171316	      0.00000000	     -0.26608414	      0.01113047	      1.93750554	     -0.49414486	      0.01480353	      2.05859963	     -0.43714964	      0.02706264	      2.05859963	     -0.30410757	      0.02706264	      1.69531734	     -0.24708574	      0.02269726	      1.57422325	     -0.15204048	      0.01724111	      1.45312915	     -1.90061243	      0.12591016	     10.77582455	      0.00000000	      0.00000000	     13.73005888	     -5.56811409	     20.87211658	     25.71476840	      2.61509750	     17.70500193	    123.75374722	     87.72525027	     -9.70181287	     -2.11906012	      7.39260330	     -7.63222831	     11.26075749	    145.60919282	     69.19733856	    -16.34967309	      2.35685026
      4.81481481	     -1.98020550	    -10.67664619	     71.37493409	      0.31838725	      0.87737190	      0.56037428	     18.26635831	      4.29048615	     14.87829072	     22.52543295	      0.39314297	     26.42278934	    -11.18250674	      0.00000000	     10.12329290	     -3.72910092	    -26.06171808	     15.30723790	      0.26716170	     33.09918773	     -0.50211440	      0.00000000	     -0.31104513	     -0.01097122	      1.86312722	     -0.57764191	     -0.01459172	      1.97957267	     -0.51101604	     -0.02667542	      1.97957267	     -0.35549348	     -0.02667542	      1.63023632	     -0.28883651	     -0.02237250	      1.51379087	     -0.17773119	     -0.01699441	      1.39734541	     -2.22176425	     -0.12410859	     10.36215466	      0.00000000	      0.00000000	     15.68534003	     -5.17841476	     20.38325562	     25.77537123	      0.13959143	     18.53828562	    122.90882990	     85.70477233	     -9.60044189	     -1.07803539	      7.15716558	    -11.21890429	     10.70346627	    144.45727741	     70.72251851	    -16.36019567	      3.63799219
